<?xml version="1.0" encoding="UTF-8" standalone="no"?>
<!-- Created with Inkscape (http://www.inkscape.org/) -->

<svg
   width="26.43252mm"
   height="26.43252mm"
   viewBox="0 0 26.43252 26.43252"
   version="1.1"
   id="svg1"
   xml:space="preserve"
   inkscape:version="1.4.2 (ebf0e940d0, 2025-05-08)"
   sodipodi:docname="add.svg"
   inkscape:export-filename="add.png"
   inkscape:export-xdpi="492.00003"
   inkscape:export-ydpi="492.00003"
   xmlns:inkscape="http://www.inkscape.org/namespaces/inkscape"
   xmlns:sodipodi="http://sodipodi.sourceforge.net/DTD/sodipodi-0.dtd"
   xmlns="http://www.w3.org/2000/svg"
   xmlns:svg="http://www.w3.org/2000/svg"><sodipodi:namedview
     id="namedview1"
     pagecolor="#ffffff"
     bordercolor="#000000"
     borderopacity="0.25"
     inkscape:showpageshadow="2"
     inkscape:pageopacity="0.0"
     inkscape:pagecheckerboard="0"
     inkscape:deskcolor="#d1d1d1"
     inkscape:document-units="mm"
     inkscape:zoom="5.3105899"
     inkscape:cx="91.515257"
     inkscape:cy="48.582173"
     inkscape:window-width="1920"
     inkscape:window-height="1005"
     inkscape:window-x="0"
     inkscape:window-y="0"
     inkscape:window-maximized="1"
     inkscape:current-layer="layer1" /><defs
     id="defs1" /><g
     inkscape:label="Ebene 1"
     inkscape:groupmode="layer"
     id="layer1"
     transform="translate(-143.94624,-51.871239)"><circle
       style="fill:#d3d3d3;stroke-width:0.264583;stroke:none;stroke-opacity:1;fill-opacity:1"
       id="path1"
       cx="157.13112"
       cy="65.098495"
       r="12.506545" /><path
       id="rect2"
       style="fill:#3eb167;stroke:none;stroke-width:0.264583;stroke-opacity:1;fill-opacity:1"
       d="m 157.10986,55.983317 c -1.20957,0 -2.18333,0.974272 -2.18333,2.183846 v 4.656563 h -4.8364 c -1.20957,0 -2.18333,0.973756 -2.18333,2.183329 v 0.381372 c 0,1.209574 0.97376,2.18333 2.18333,2.18333 h 4.8364 v 4.585766 c 0,1.209574 0.97376,2.183329 2.18333,2.183329 h 0.38137 c 1.20957,0 2.18333,-0.973755 2.18333,-2.183329 v -4.585766 h 4.40593 c 1.20958,0 2.18333,-0.973756 2.18333,-2.18333 v -0.381372 c 0,-1.209573 -0.97375,-2.183329 -2.18333,-2.183329 h -4.40593 v -4.656563 c 0,-1.209574 -0.97376,-2.183846 -2.18333,-2.183846 z" /></g></svg>
